<!--?xml version="1.0" standalone="no"?-->
              <svg id="sw-js-blob-svg" viewBox="0 0 100 100" xmlns="http://www.w3.org/2000/svg" version="1.1">
                    <defs> 
                        <linearGradient id="sw-gradient" x1="0" x2="1" y1="1" y2="0">
                            <stop id="stop1" stop-color="rgba(92, 107, 236, 1)" offset="0%"></stop>
                            <stop id="stop2" stop-color="rgba(127.62, 140.889, 255, 0.99)" offset="100%"></stop>
                        </linearGradient>
                    </defs>
                <path fill="url(#sw-gradient)" d="M25.4,-31.2C31.7,-25,34.6,-15.8,35.8,-6.7C36.9,2.4,36.3,11.5,31.7,17.4C27.2,23.3,18.8,26,10.8,28.2C2.8,30.4,-4.8,32.2,-13.4,31.4C-22.1,30.7,-31.9,27.4,-35.8,20.6C-39.8,13.9,-37.9,3.8,-35,-5.1C-32.2,-14,-28.4,-21.6,-22.4,-27.9C-16.4,-34.2,-8.2,-39.1,0.7,-39.9C9.6,-40.7,19.1,-37.5,25.4,-31.2Z" width="100%" height="100%" transform="translate(50 50)" stroke-width="0" style="transition: 0.3s;"></path>
              </svg>