<!--?xml version="1.0" standalone="no"?-->
              <svg id="sw-js-blob-svg" viewBox="0 0 100 100" xmlns="http://www.w3.org/2000/svg" version="1.1">
                    <defs> 
                        <linearGradient id="sw-gradient" x1="0" x2="1" y1="1" y2="0">
                            <stop id="stop1" stop-color="rgba(92, 107, 236, 1)" offset="0%"></stop>
                            <stop id="stop2" stop-color="rgba(127.62, 140.889, 255, 0.99)" offset="100%"></stop>
                        </linearGradient>
                    </defs>
                <path fill="none" d="M25.5,-31.5C32.1,-24.9,35.8,-15.9,35.9,-7.5C36,1,32.5,8.9,27.8,15.2C23.1,21.5,17.2,26.1,10.3,28.9C3.4,31.6,-4.3,32.4,-11.9,30.6C-19.5,28.8,-26.9,24.3,-30.2,17.8C-33.5,11.3,-32.8,2.8,-32.3,-6.7C-31.9,-16.3,-31.7,-27,-26.4,-33.8C-21.1,-40.5,-10.5,-43.4,-0.5,-42.7C9.5,-42.1,19,-38,25.5,-31.5Z" width="100%" height="100%" transform="translate(50 50)" stroke-width="1" style="transition: 0.3s;" stroke="url(#sw-gradient)"></path>
              </svg>