<!--?xml version="1.0" standalone="no"?-->
              <svg id="sw-js-blob-svg" viewBox="0 0 100 100" xmlns="http://www.w3.org/2000/svg" version="1.1">
                    <defs> 
                        <linearGradient id="sw-gradient" x1="0" x2="1" y1="1" y2="0">
                            <stop id="stop1" stop-color="rgba(92, 107, 236, 1)" offset="0%"></stop>
                            <stop id="stop2" stop-color="rgba(127.62, 140.889, 255, 0.99)" offset="100%"></stop>
                        </linearGradient>
                    </defs>
                <path fill="url(#sw-gradient)" d="M20.4,-35.6C26.8,-31.7,32.5,-26.9,36.8,-20.8C41.1,-14.7,44,-7.3,44.9,0.5C45.7,8.3,44.4,16.6,40.4,23.2C36.4,29.8,29.6,34.7,22.4,37.5C15.3,40.3,7.6,41,0.1,40.8C-7.4,40.6,-14.8,39.5,-20.4,35.8C-26,32.1,-29.9,25.8,-34.4,19.4C-39,13,-44.1,6.5,-44.9,-0.5C-45.8,-7.5,-42.2,-14.9,-37.7,-21.3C-33.2,-27.8,-27.7,-33.2,-21.3,-37.1C-14.8,-41,-7.4,-43.4,-0.2,-43C7,-42.7,14,-39.6,20.4,-35.6Z" width="100%" height="100%" transform="translate(50 50)" stroke-width="0" style="transition: 0.3s;" stroke="url(#sw-gradient)"></path>
              </svg>