<svg id="visual" viewBox="0 0 900 600" width="900" height="600" xmlns="http://www.w3.org/2000/svg" xmlns:xlink="http://www.w3.org/1999/xlink" version="1.1"><path d="M0 91L21.5 86C43 81 86 71 128.8 81C171.7 91 214.3 121 257.2 121C300 121 343 91 385.8 73C428.7 55 471.3 49 514.2 50C557 51 600 59 642.8 56C685.7 53 728.3 39 771.2 48C814 57 857 89 878.5 105L900 121L900 0L878.5 0C857 0 814 0 771.2 0C728.3 0 685.7 0 642.8 0C600 0 557 0 514.2 0C471.3 0 428.7 0 385.8 0C343 0 300 0 257.2 0C214.3 0 171.7 0 128.8 0C86 0 43 0 21.5 0L0 0Z" fill="#6198ff"></path><path d="M0 199L21.5 187C43 175 86 151 128.8 159C171.7 167 214.3 207 257.2 215C300 223 343 199 385.8 179C428.7 159 471.3 143 514.2 144C557 145 600 163 642.8 167C685.7 171 728.3 161 771.2 161C814 161 857 171 878.5 176L900 181L900 119L878.5 103C857 87 814 55 771.2 46C728.3 37 685.7 51 642.8 54C600 57 557 49 514.2 48C471.3 47 428.7 53 385.8 71C343 89 300 119 257.2 119C214.3 119 171.7 89 128.8 79C86 69 43 79 21.5 84L0 89Z" fill="#4385ff"></path><path d="M0 373L21.5 357C43 341 86 309 128.8 312C171.7 315 214.3 353 257.2 347C300 341 343 291 385.8 265C428.7 239 471.3 237 514.2 244C557 251 600 267 642.8 276C685.7 285 728.3 287 771.2 296C814 305 857 321 878.5 329L900 337L900 179L878.5 174C857 169 814 159 771.2 159C728.3 159 685.7 169 642.8 165C600 161 557 143 514.2 142C471.3 141 428.7 157 385.8 177C343 197 300 221 257.2 213C214.3 205 171.7 165 128.8 157C86 149 43 173 21.5 185L0 197Z" fill="#2071ff"></path><path d="M0 403L21.5 396C43 389 86 375 128.8 378C171.7 381 214.3 401 257.2 397C300 393 343 365 385.8 343C428.7 321 471.3 305 514.2 300C557 295 600 301 642.8 313C685.7 325 728.3 343 771.2 363C814 383 857 405 878.5 416L900 427L900 335L878.5 327C857 319 814 303 771.2 294C728.3 285 685.7 283 642.8 274C600 265 557 249 514.2 242C471.3 235 428.7 237 385.8 263C343 289 300 339 257.2 345C214.3 351 171.7 313 128.8 310C86 307 43 339 21.5 355L0 371Z" fill="#0061f1"></path><path d="M0 529L21.5 526C43 523 86 517 128.8 520C171.7 523 214.3 535 257.2 542C300 549 343 551 385.8 544C428.7 537 471.3 521 514.2 512C557 503 600 501 642.8 510C685.7 519 728.3 539 771.2 541C814 543 857 527 878.5 519L900 511L900 425L878.5 414C857 403 814 381 771.2 361C728.3 341 685.7 323 642.8 311C600 299 557 293 514.2 298C471.3 303 428.7 319 385.8 341C343 363 300 391 257.2 395C214.3 399 171.7 379 128.8 376C86 373 43 387 21.5 394L0 401Z" fill="#0056d6"></path><path d="M0 601L21.5 601C43 601 86 601 128.8 601C171.7 601 214.3 601 257.2 601C300 601 343 601 385.8 601C428.7 601 471.3 601 514.2 601C557 601 600 601 642.8 601C685.7 601 728.3 601 771.2 601C814 601 857 601 878.5 601L900 601L900 509L878.5 517C857 525 814 541 771.2 539C728.3 537 685.7 517 642.8 508C600 499 557 501 514.2 510C471.3 519 428.7 535 385.8 542C343 549 300 547 257.2 540C214.3 533 171.7 521 128.8 518C86 515 43 521 21.5 524L0 527Z" fill="#004cbb"></path></svg>